<svg id="Layer_1" data-name="Layer 1" xmlns="http://www.w3.org/2000/svg" viewBox="0 0 536.37 534.8"><defs><style>.cls-1{opacity:0.1;}.cls-2{fill:#005325;}</style></defs><title>logolight</title><g id="BackGroundLogo" class="cls-1"><path class="cls-2" d="M303.42,49.71c-.53,3.3.14,7.77-1.77,9.74a517.66,517.66,0,0,0-92.47,132.06c-6,12.27-15.84,23-25.17,33.25-10.2,11.24-22.47,20.6-32.65,31.85-7.69,8.49-14.91,18-19.84,28.25-7.4,15.39.37,32.83,16.38,38.85a217.07,217.07,0,0,0,84.24,13.38c7-.24,13.84-7.25,20.75-11.15l-1.26-3.45c-13.47-.77-27-1.07-40.41-2.41-16.89-1.69-33.69-4.21-50.52-6.45a38.84,38.84,0,0,1-6.94-1.7c-18.53-6.05-24.23-16.63-7.91-31.1,12.27-10.88,23.65-22.76,36-33.57,26.54-23.25,45.71-51.34,59.27-83.92,16.81-40.42,44.31-73.17,77-101.87,5.51-4.83,9.9-5.63,15.35-.39,7.94,7.64,16.48,14.68,24.22,22.51q93,94.29,185.89,188.78c11.08,11.25,20.47,23.42,22.24,39.74.32,3-1.15,6.14-1.79,9.21-2.8-1.11-6.35-1.49-8.29-3.45C518.64,280.24,475.64,251.3,428,228.66c-21.57-10.26-38.38-26.73-54.43-44.34-10.71-11.74-22.81-22.91-36.17-31.38-18.69-11.86-38.59-4.08-46,16.79a229,229,0,0,0-13.13,81.7c.17,9.08,5.74,15.24,14.41,22.19,0-4.86-.11-7.88,0-10.9,1.25-30.06,1.06-60.25,10.95-89.31,6.42-18.87,18.24-22.17,32.26-8,18.64,18.89,36.64,38.41,55.5,57.07a140.07,140.07,0,0,0,47.63,31.12c44.78,17.58,81.94,45.9,114.65,80.69,5.62,6,6.22,11,.72,17-3.65,3.94-7,8.12-10.82,11.92Q441.25,465.93,338.83,568.58c-9,9-19.48,14.72-32.17,15.84-4.24.37-8.59-.43-15.21-.83,3.53-4.59,5.35-7.52,7.7-9.92,35.51-36.34,65.56-76.4,86-123.32,9.09-20.9,24.09-37.49,41-52.5,7.57-6.74,15.59-13.21,22-21,6.95-8.38,13.61-17.5,18-27.37,7.17-16.1-.13-33.13-16.45-39.68-27.26-10.94-56-14.23-85.13-13.28-9.18.3-13.49,8.28-19.31,13.62.27.74.55,1.48.83,2.22,3.42.19,6.84.32,10.25.57,24.34,1.76,48.72,3.09,73,5.59,7.82.81,15.51,4.26,22.93,7.3,8.39,3.45,11.06,10.49,6.3,18.17a95.84,95.84,0,0,1-14.82,17.7c-15.6,15.18-31.93,29.61-47.34,45-14.3,14.26-24.8,31.27-32.11,50.13C347,501.36,320,539,284.32,570.64c-10.95,9.71-13.33,10.07-23.79-.23-30.19-29.73-60-59.78-90-89.75-39-39.05-77.76-78.36-117.06-117.11-11.58-11.43-20.08-24.14-24-39.88v-8.95c6.05-4,9.31.83,12.79,4.23,34.57,33.87,72.81,62.65,117,82.81,26.1,11.92,47.21,29.51,65.8,51.14a157.91,157.91,0,0,0,31.81,28.45c22,14.61,41,7.64,50.17-17.23,9.56-25.78,10.6-53.08,12.69-80.08.7-9.08-5.32-15-13.78-20.18-.38,3.79-.76,6.34-.88,8.9-.63,14,.07,28.21-2.1,42a441,441,0,0,1-12.64,55.46c-2.86,9.7-11.57,11.92-20.25,6.47A95.45,95.45,0,0,1,252.17,462c-10.32-10.75-19.66-22.45-30-33.21-18.24-19-37.49-36.81-62.91-46.19-45.44-16.76-83.75-43.9-115.81-80.07-9.28-10.47-9.66-12.27.09-22.14C61,262.79,78.86,245.68,96.46,228.27q76.05-75.22,152-150.53c11.87-11.76,24-23.12,40.61-28Zm72.06,459c9.89-12.47,17.85-24.47,27.74-34.59,31-31.76,62.74-62.89,94.34-94.11,26.91-26.59,21.76-62.31-11.85-79.68-20.12-10.4-40.47-20.36-60.57-30.8-4.1-2.13-10.07-3.28-8.83-10.49.17-1-2.11-2.69-3.55-3.62-21.43-13.8-41.45-29.19-56.79-49.94a22.93,22.93,0,0,0-4.67-4.14c-13.43-10.29-25-7.51-32.43,7.87-1.28,2.67-2.66,5.53-2.92,8.4-1.41,15.7-2.95,31.43-3.44,47.18-.16,5.4,1.72,11.34,4.28,16.18a14.65,14.65,0,0,0,9.55,6.69c12.74,1.78,29.09-12,33.05-26.77,3.4-12.75-2.44-23.36-16.45-29.79-3-1.37-6.29-2.21-8.95-4-2.91-2-7.72-5.33-7.34-7.18.89-4.3,3.61-9.28,7.15-11.58,2.4-1.55,8.5-.24,11.1,2,6.1,5.16,11,11.68,16.52,17.54,7.34,7.79,14.12,16.31,22.36,23,10.14,8.23,10.69,7.55,7,19.31,2.5,1.21,5.05,2.62,7.73,3.72,14.34,5.85,29,11,43,17.6,16.93,8,33.63,16.73,49.72,26.33C505.68,326.45,508,337.66,499,352a84.51,84.51,0,0,1-14.46,16.87c-21.06,19.4-42.64,38.25-63.69,57.67C403.45,442.59,388.78,461,378,482.24,374.07,490,371.14,498,375.48,508.74ZM180.76,376.82c12,8.71,23.43,15.87,33.45,24.66,10.26,9,19,19.76,28.66,29.49a38.53,38.53,0,0,0,10.1,7.25c9.72,4.82,17.09,2.38,22.38-7.17,12.88-23.25,12.25-48.11,7.78-73.12-1.58-8.82-9.48-12.72-17.93-9.32a67.19,67.19,0,0,0-18.3,10.79c-14.56,12.4-12.61,33,3.8,43a84.54,84.54,0,0,0,15.47,6.9c5.3,1.9,5.76,5.44,4.36,9.93-3.17,10.17-13,12.15-20.71,4.06-15.37-16.05-27.45-35.41-47.39-46.85-.32-.19-.23-1.09-.37-1.81,2.2-3,4.46-6,7.64-10.31-8.37-3.43-16.13-6.2-23.53-9.72-27.65-13.17-55.6-25.8-82.58-40.24C89.16,306.64,87.84,294.3,98,281.31c5.65-7.23,12.45-13.63,19.15-20,27.25-25.81,55-51.13,81.88-77.31,12.05-11.72,21-26,24.85-42.76,1-4.23.68-8.76,1-13.15l-2.61-.59c-2.19,2.72-4.29,5.52-6.59,8.15-16.43,18.83-32,38.49-49.57,56.23-22,22.24-45.51,43-68.52,64.22-28.81,26.58-13.09,64.62,12.37,76.69C132.51,343.55,154.8,355,177.25,366,182.11,368.4,187.22,370.5,180.76,376.82Zm165.41,33.67c-3.62,9.47-6.61,19.08-10.87,28.08-11.58,24.44-23.05,49-35.84,72.77-7.47,13.92-17.76,16.89-31.65,9.34-9.72-5.29-18.65-12.86-26.3-21-17.81-18.85-33.85-39.39-52.08-57.8-15.45-15.61-32.54-29.72-49.79-43.38-6.25-4.94-14.88-7.33-22.8-9.52-3.9-1.08-8.66,1-13,1.6l-.53,2.9c7.26,5.53,14.27,11.45,21.83,16.53,34.19,23,64.24,50.11,88.74,83.51,8.19,11.17,18.64,21,29.37,29.89,26.62,22,55.49,16.28,71.24-14.27,12.28-23.79,22.9-48.43,34.34-72.66,1.43-3,3.33-5.86,6.13-10.72l4.21,9.33c14.39-24.83,31.62-43.67,51.3-60.37a33.14,33.14,0,0,0,4.1-4.72c11.85-14.82,9-28.94-9.07-35.08-20.78-7.06-42.7-8.58-64.15-2.28-4.19,1.23-9.24,6.66-10.05,10.9-2.56,13.24,10.32,30.48,24.34,34.74,12.22,3.71,24.24-2.91,31.33-17.41,1.3-2.66,1.78-5.77,3.31-8.26,1.7-2.75,4.79-7.41,6.21-7,4.56,1.17,9.46,3.51,12.53,6.93,1.51,1.67.55,8-1.48,10-8.16,8.24-17.49,15.31-25.78,23.44-6.11,6-12.08,12.43-16.66,19.6C358,416.65,358.53,417,346.17,410.49ZM491.09,244.08l.33-2.27a44.13,44.13,0,0,0-3.8-3.45C450.14,211,417.72,178,384.85,145.5c-13.34-13.19-27.57-25.48-41.39-38.19-9.21-8.48-19.58-9.19-30.73-4.58s-19.29,12.9-24.91,23.42c-11.51,21.54-22.51,43.36-34.24,64.77-3.21,5.87-3.12,16.52-14.91,13.45-.53-.14-1.71,1.5-2.31,2.48-12.9,21.15-30.62,37.89-48.8,54.36-16.06,14.57-12.24,30.86,8.21,38,19.5,6.84,39.47,5.19,59.3,2.57,9.73-1.29,14.08-8.29,10.76-17.7-2.69-7.61-6.83-15.45-12.41-21.15-11.17-11.39-27-9.54-36.36,3.41-3.42,4.73-5,10.76-8,15.81-1.76,2.9-5.58,7.51-7.17,7A39.33,39.33,0,0,1,187,280.88c-1.25-1.15.71-7.17,2.6-10,2.23-3.37,6-5.7,9.08-8.52,13.45-12.4,30.36-21.5,37.61-39.91.56-1.4,5.08-2.16,7.42-1.66s4.22,3,6.76,4.91a42.56,42.56,0,0,0,3-5.78c10.92-33.39,28.53-63.5,46-93.69,9.29-16.1,25.14-18.86,38.87-6.33,10.76,9.81,20.91,20.37,30.72,31.15,25.1,27.58,49.71,55.69,80,77.87,8.5,6.23,18.42,10.76,28.18,14.9C481.12,245.49,486.4,244.08,491.09,244.08Z" transform="translate(-29.45 -49.71)"/><path class="cls-2" d="M380.58,342.58c-12.33.9-24.3,1.64-36.22,2.9-1,.11-2.7,4.28-2.1,5.74,2.54,6.2,14.2,11.38,21.27,10.08C372.55,359.63,379.05,353.15,380.58,342.58Z" transform="translate(-29.45 -49.71)"/><path class="cls-2" d="M324.09,255.15c-.12-2.67-.64-5.4-.26-8a97.07,97.07,0,0,1,2.64-10.53c3.11,1.46,6.66,2.39,9.27,4.48,11.47,9.16,11,24-.72,32.74-5.43,4.06-9.41,2.46-10.3-4.48-.6-4.69-.5-9.48-.71-14.22Z" transform="translate(-29.45 -49.71)"/><path class="cls-2" d="M273,381.23c.09,2.08.6,4.24.19,6.22-.8,3.77-2.12,7.43-3.22,11.13-3.42-2.1-7.48-3.6-10.15-6.42-9-9.52-8.26-21,1.38-29.88,5.93-5.5,9.27-4.75,10.81,3,1,5.2.91,10.61,1.31,15.93Z" transform="translate(-29.45 -49.71)"/><path class="cls-2" d="M380.58,342.58c-1.53,10.57-8,17.05-17.05,18.72-7.07,1.3-18.73-3.88-21.27-10.08-.6-1.46,1.14-5.63,2.1-5.74C356.28,344.22,368.25,343.48,380.58,342.58Z" transform="translate(-29.45 -49.71)"/><path class="cls-2" d="M216.34,291.8c3.2-12.67,10-19.56,19.78-19.35,6.63.13,13.53,4.49,19.57,8.17,3.08,1.87,5.22,7.82-.91,8.63C242.08,290.93,229.17,291,216.34,291.8Z" transform="translate(-29.45 -49.71)"/></g></svg>