<svg id="Layer_1" data-name="Layer 1" xmlns="http://www.w3.org/2000/svg" viewBox="0 0 948 945.23"><defs><style>.cls-1{fill:#0d4220;}</style></defs><title>logo</title><g id="BackGroundLogo"><path class="cls-1" d="M308.21-52c-.93,5.84.25,13.72-3.12,17.21-66.83,69.21-120.9,147-163.44,233.42-10.67,21.68-28,40.58-44.48,58.76-18,19.86-39.72,36.4-57.72,56.28-13.58,15-26.33,31.82-35.05,49.94-13.08,27.2.66,58,28.94,68.66,47.9,18,98.07,25.39,148.9,23.66,12.43-.43,24.45-12.83,36.66-19.72l-2.22-6.1c-23.81-1.35-47.71-1.88-71.42-4.25-29.85-3-59.55-7.44-89.29-11.4a69.74,69.74,0,0,1-12.27-3c-32.75-10.7-42.82-29.4-14-55,21.69-19.23,41.8-40.24,63.6-59.33,46.91-41.11,80.79-90.74,104.75-148.34,29.72-71.43,78.31-129.31,136.07-180,9.73-8.54,17.49-10,27.12-.69,14,13.5,29.13,25.94,42.8,39.8Q568.52,174.52,732.61,341.53c19.6,19.89,36.18,41.4,39.31,70.24.57,5.25-2,10.85-3.17,16.29-4.94-2-11.22-2.64-14.64-6.11-65.51-66.5-141.5-117.65-225.62-157.67-38.13-18.13-67.85-47.24-96.21-78.36-18.93-20.76-40.33-40.5-63.93-55.47-33-21-68.2-7.21-81.33,29.68a405,405,0,0,0-23.2,144.4c.31,16.05,10.15,26.92,25.47,39.21,0-8.58-.19-13.93,0-19.25,2.21-53.14,1.88-106.49,19.36-157.86,11.35-33.36,32.23-39.19,57-14.07,32.94,33.38,64.76,67.88,98.09,100.86a247.81,247.81,0,0,0,84.18,55C627.12,339.51,692.8,389.56,750.61,451c9.94,10.57,11,19.52,1.27,30-6.45,7-12.44,14.36-19.13,21.07Q551.82,683.63,370.81,865.07c-15.9,16-34.44,26-56.86,28-7.5.66-15.19-.75-26.89-1.47,6.24-8.1,9.46-13.27,13.62-17.53,62.76-64.22,115.86-135,151.93-218,16.07-36.94,42.58-66.25,72.4-92.79,13.39-11.92,27.57-23.34,38.93-37,12.28-14.8,24-30.93,31.82-48.37,12.68-28.45-.23-58.55-29.08-70.13-48.17-19.34-98.91-25.15-150.45-23.48-16.22.53-23.84,14.64-34.13,24.08.48,1.31,1,2.62,1.46,3.92,6,.33,12.09.57,18.12,1,43,3.11,86.11,5.47,129,9.88,13.83,1.42,27.41,7.52,40.52,12.91,14.84,6.09,19.56,18.53,11.14,32.11-7.1,11.46-16.47,21.83-26.19,31.28-27.58,26.82-56.44,52.33-83.67,79.49-25.28,25.2-43.83,55.27-56.76,88.59-30.55,78.69-78.26,145.28-141.26,201.14-19.34,17.15-23.55,17.8-42-.41-53.35-52.54-106.13-105.65-159-158.63-68.93-69-137.43-138.49-206.89-207C-154,482.49-169,460-176,432.21V416.39c10.69-7.1,16.45,1.45,22.6,7.48C-92.3,483.73-24.71,534.59,53.37,570.23c46.13,21,83.44,52.15,116.29,90.38a278.89,278.89,0,0,0,56.23,50.28c38.89,25.82,72.38,13.51,88.68-30.44,16.89-45.58,18.72-93.82,22.42-141.55,1.24-16-9.39-26.46-24.36-35.67-.67,6.71-1.34,11.22-1.54,15.75-1.12,24.74.12,49.84-3.73,74.14a778.43,778.43,0,0,1-22.33,98c-5,17.15-20.45,21.08-35.8,11.44a168.54,168.54,0,0,1-31.58-25.85c-18.25-19-34.75-39.69-53-58.71C132.42,584.4,98.41,553,53.48,536.4c-80.32-29.63-148-77.6-204.68-141.52-16.41-18.51-17.08-21.69.15-39.14,30.74-31.13,62.38-61.37,93.49-92.14q134.4-133,268.68-266.06c21-20.79,42.44-40.87,71.77-49.54ZM435.58,759.3c17.49-22,31.55-43.25,49-61.13C539.49,642,595.51,587,651.36,531.83c47.56-47,38.44-110.13-21-140.82-35.57-18.38-71.53-36-107.06-54.44-7.25-3.76-17.79-5.8-15.6-18.54.3-1.74-3.73-4.76-6.27-6.39-37.89-24.4-73.28-51.59-100.38-88.28-2.14-2.89-5.34-5.07-8.26-7.31-23.73-18.2-44.18-13.28-57.31,13.91-2.27,4.71-4.7,9.77-5.16,14.84-2.5,27.76-5.21,55.55-6.08,83.39-.29,9.54,3,20,7.56,28.59,2.92,5.52,10.66,11,16.88,11.83,22.51,3.14,51.42-21.14,58.41-47.32,6-22.53-4.31-41.27-29.07-52.65-5.27-2.42-11.12-3.89-15.82-7.1-5.15-3.51-13.64-9.43-13-12.7,1.58-7.58,6.37-16.4,12.63-20.45,4.24-2.74,15-.43,19.63,3.46,10.77,9.11,19.46,20.65,29.2,31,13,13.77,24.94,28.82,39.52,40.65,17.92,14.54,18.88,13.35,12.29,34.12,4.42,2.14,8.92,4.64,13.66,6.58,25.36,10.34,51.34,19.37,76,31.11,29.91,14.22,59.43,29.57,87.86,46.54,25.6,15.26,29.62,35.08,13.85,60.35-6.87,11-16,21-25.55,29.82C591.17,546.32,553,579.63,515.83,614,485,642.39,459.09,674.89,440,712.47,433.09,726.18,427.91,740.33,435.58,759.3ZM91.43,526.15c21.16,15.39,41.41,28,59.11,43.58,18.14,15.94,33.57,34.93,50.66,52.12a68.36,68.36,0,0,0,17.85,12.82c17.18,8.51,30.2,4.21,39.57-12.68,22.76-41.08,21.64-85,13.73-129.23-2.79-15.59-16.76-22.48-31.68-16.47a118.77,118.77,0,0,0-32.35,19.06c-25.74,21.92-22.28,58.36,6.73,76,8.46,5.15,17.95,8.84,27.32,12.2s10.18,9.62,7.72,17.55c-5.6,18-22.9,21.48-36.61,7.17-27.16-28.36-48.51-62.58-83.75-82.8-.57-.33-.42-1.92-.65-3.2L142.57,504c-14.79-6.06-28.5-11-41.57-17.18C52.13,463.59,2.72,441.27-45,415.75c-25.51-13.64-27.84-35.45-9.91-58.41,10-12.78,22-24.09,33.84-35.3,48.17-45.62,97.19-90.37,144.73-136.64,21.3-20.72,37.1-46,43.92-75.58,1.72-7.48,1.19-15.48,1.69-23.24l-4.62-1c-3.87,4.81-7.58,9.76-11.64,14.41-29,33.29-56.62,68-87.62,99.38C26.54,238.63-15,275.3-55.68,312.83c-50.92,47-23.14,114.21,21.86,135.55,40,19,79.36,39.12,119.05,58.65C93.82,511.26,102.85,515,91.43,526.15Zm292.36,59.5c-6.41,16.74-11.69,33.72-19.23,49.64-20.46,43.19-40.73,86.54-63.33,128.62-13.22,24.59-31.4,29.85-56,16.5-17.18-9.35-33-22.73-46.48-37-31.47-33.32-59.83-69.63-92.05-102.16-27.31-27.6-57.51-52.54-88-76.68-11-8.74-26.29-13-40.29-16.82-6.89-1.9-15.3,1.7-23,2.82-.32,1.71-.63,3.42-1,5.14,12.84,9.77,25.22,20.23,38.59,29.21,60.43,40.6,113.53,88.55,156.84,147.6,14.48,19.73,33,37.16,51.92,52.83,47,38.84,98.06,28.77,125.91-25.22,21.69-42.05,40.47-85.61,60.68-128.43,2.54-5.38,5.89-10.37,10.84-18.95l7.44,16.5c25.43-43.9,55.89-77.18,90.66-106.71,2.78-2.36,4.95-5.46,7.26-8.34,21-26.2,16-51.14-16-62-36.74-12.47-75.47-15.15-113.38-4-7.4,2.17-16.33,11.77-17.78,19.26-4.51,23.4,18.25,53.88,43,61.41,21.61,6.56,42.84-5.14,55.38-30.77,2.3-4.71,3.13-10.21,5.85-14.6,3-4.86,8.47-13.1,11-12.46,8.06,2.06,16.71,6.21,22.14,12.24,2.67,3,1,14.08-2.61,17.68-14.44,14.56-30.92,27.06-45.57,41.42-10.8,10.59-21.36,22-29.45,34.64C404.68,596.55,405.62,597.15,383.79,585.65ZM639.91,291.53l.6-4a83.86,83.86,0,0,0-6.72-6.1C567.53,233,510.24,174.75,452.14,117.3,428.57,94,403.41,72.27,379,49.8c-16.29-15-34.61-16.23-54.32-8.09-19.9,8.22-34.09,22.79-44,41.39-20.34,38.07-39.77,76.63-60.5,114.48-5.68,10.36-5.53,29.19-26.36,23.76-.94-.24-3,2.66-4.09,4.4-22.8,37.38-54.12,67-86.24,96.08C75.06,347.56,81.81,376.36,118,389c34.47,12.09,69.76,9.16,104.8,4.53,17.2-2.27,24.89-14.65,19-31.27C237,348.83,229.71,335,219.84,324.91c-19.73-20.13-47.78-16.86-64.27,6-6,8.36-8.78,19-14.19,27.94-3.11,5.13-9.85,13.27-12.67,12.42a69.36,69.36,0,0,1-26.24-14.72c-2.21-2,1.25-12.66,4.59-17.71,4-5.95,10.63-10.06,16-15.06,23.77-21.92,53.67-38,66.49-70.53,1-2.47,9-3.82,13.11-2.94s7.46,5.23,11.95,8.68c2.07-3.94,4.21-6.91,5.29-10.22,19.3-59,50.43-112.23,81.21-165.58,16.42-28.46,44.44-33.34,68.7-11.2,19,17.35,37,36,54.31,55.06C468.53,175.81,512,225.5,565.48,264.7c15,11,32.55,19,49.8,26.34C622.29,294,631.63,291.53,639.91,291.53Z" transform="translate(176 52)"/><path class="cls-1" d="M444.59,465.63c-21.79,1.59-42.95,2.9-64,5.13-1.71.18-4.79,7.55-3.73,10.14,4.5,11,25.1,20.12,37.6,17.81C430.39,495.76,441.9,484.31,444.59,465.63Z" transform="translate(176 52)"/><path class="cls-1" d="M344.75,311.1c-.21-4.72-1.14-9.54-.46-14.13.92-6.29,3-12.41,4.66-18.61,5.51,2.59,11.78,4.23,16.4,7.93,20.27,16.19,19.46,42.35-1.29,57.86-9.59,7.17-16.62,4.35-18.19-7.92-1.07-8.3-.88-16.75-1.26-25.13Z" transform="translate(176 52)"/><path class="cls-1" d="M254.42,533.93c.16,3.68,1.07,7.51.33,11-1.4,6.67-3.74,13.14-5.69,19.69-6.05-3.72-13.23-6.37-17.94-11.35-15.91-16.83-14.59-37.06,2.44-52.82,10.49-9.71,16.39-8.4,19.11,5.3,1.82,9.17,1.61,18.75,2.31,28.15Z" transform="translate(176 52)"/><path class="cls-1" d="M444.59,465.63c-2.69,18.68-14.2,30.13-30.13,33.08-12.5,2.31-33.1-6.85-37.6-17.81-1.06-2.59,2-10,3.73-10.14C401.64,468.53,422.8,467.22,444.59,465.63Z" transform="translate(176 52)"/><path class="cls-1" d="M154.31,375.87c5.66-22.39,17.71-34.56,34.95-34.2,11.72.24,23.92,7.93,34.6,14.44,5.45,3.32,9.23,13.83-1.61,15.26C199.8,374.35,177,374.54,154.31,375.87Z" transform="translate(176 52)"/></g></svg>